<?xml version="1.0" encoding="UTF-8"?>
<!-- Generator: visioncortex VTracer -->
<svg id="svg" version="1.1" xmlns="http://www.w3.org/2000/svg" style="display: block;" viewBox="0 0 534 467"><path d="M0,0 L16,0 L29,3 L40,7 L55,16 L61,21 L61,23 L63,23 L63,25 L65,25 L65,27 L67,27 L77,41 L79,44 L79,48 L81,48 L87,64 L89,72 L89,78 L51,78 L47,70 L44,64 L44,62 L42,62 L36,54 L26,47 L13,43 L1,43 L-12,47 L-23,55 L-33,69 L-38,83 L-39,91 L-39,101 L-37,112 L-33,122 L-26,133 L-19,140 L-8,146 L1,148 L14,148 L27,144 L36,137 L42,130 L44,130 L46,125 L51,114 L89,114 L88,124 L84,137 L75,154 L64,167 L54,176 L47,181 L36,186 L24,190 L15,191 L0,191 L-12,189 L-26,184 L-42,174 L-42,172 L-46,170 L-54,162 L-61,152 L-65,146 L-67,141 L-71,131 L-72,186 L-73,187 L-125,187 L-126,123 L-134,139 L-143,156 L-151,173 L-159,187 L-209,187 L-210,111 L-219,128 L-227,144 L-235,160 L-244,177 L-250,189 L-258,205 L-270,228 L-278,244 L-290,267 L-298,282 L-306,298 L-314,314 L-326,337 L-335,354 L-341,366 L-349,381 L-357,397 L-365,412 L-408,412 L-408,4 L-266,4 L-265,5 L-265,59 L-366,59 L-366,138 L-299,138 L-298,178 L-290,162 L-286,154 L-276,135 L-268,119 L-266,114 L-264,114 L-263,109 L-255,93 L-245,74 L-238,60 L-228,41 L-220,25 L-212,10 L-209,5 L-208,4 L-163,4 L-162,88 L-154,72 L-144,53 L-135,36 L-129,24 L-124,15 L-118,4 L-73,4 L-72,6 L-72,63 L-66,48 L-60,38 L-58,34 L-56,34 L-54,30 L-48,23 L-42,18 L-40,18 L-40,16 L-29,9 L-18,4 L-6,1 Z M-366,187 L-366,310 L-364,308 L-356,292 L-346,273 L-337,256 L-329,240 L-321,225 L-313,209 L-305,194 L-303,190 L-303,187 Z " transform="translate(430,27)" style="fill: #253B6F;"/></svg>